<mxfile host="app.diagrams.net" modified="2023-08-30T10:58:45.748Z" agent="Mozilla/5.0 (Windows NT 10.0; Win64; x64; rv:109.0) Gecko/20100101 Firefox/116.0" etag="jVduQCZaoLsV6JWI9aWY" version="21.7.0" type="github">
  <diagram name="Page-1" id="s1p3oClOm8JllZN67NMc">
    <mxGraphModel dx="2074" dy="1126" grid="1" gridSize="10" guides="1" tooltips="1" connect="1" arrows="1" fold="1" page="1" pageScale="1" pageWidth="1169" pageHeight="827" math="0" shadow="0">
      <root>
        <mxCell id="0" />
        <mxCell id="1" parent="0" />
        <mxCell id="qcetmUhBh17T8OcVZiiX-1" value="Aanvraag van een werkplaats" style="swimlane;childLayout=stackLayout;resizeParent=1;resizeParentMax=0;horizontal=1;startSize=20;horizontalStack=0;html=1;" vertex="1" parent="1">
          <mxGeometry y="30" width="2040" height="920" as="geometry" />
        </mxCell>
        <mxCell id="qcetmUhBh17T8OcVZiiX-2" value="Aanvrager" style="swimlane;startSize=20;horizontal=0;html=1;" vertex="1" parent="qcetmUhBh17T8OcVZiiX-1">
          <mxGeometry y="20" width="2040" height="120" as="geometry" />
        </mxCell>
        <mxCell id="qcetmUhBh17T8OcVZiiX-6" value="Invullen aanmeldformulier" style="strokeWidth=2;html=1;shape=mxgraph.flowchart.terminator;whiteSpace=wrap;fillColor=#dae8fc;strokeColor=#6c8ebf;" vertex="1" parent="qcetmUhBh17T8OcVZiiX-2">
          <mxGeometry x="40" y="30" width="110" height="50" as="geometry" />
        </mxCell>
        <mxCell id="qcetmUhBh17T8OcVZiiX-49" value="Einde aanvraag - geen werkplaats" style="strokeWidth=2;html=1;shape=mxgraph.flowchart.terminator;whiteSpace=wrap;fillColor=#f8cecc;strokeColor=#b85450;" vertex="1" parent="qcetmUhBh17T8OcVZiiX-2">
          <mxGeometry x="1215" y="30" width="110" height="50" as="geometry" />
        </mxCell>
        <mxCell id="qcetmUhBh17T8OcVZiiX-3" value="Algemeen" style="swimlane;startSize=20;horizontal=0;html=1;" vertex="1" parent="qcetmUhBh17T8OcVZiiX-1">
          <mxGeometry y="140" width="2040" height="370" as="geometry" />
        </mxCell>
        <mxCell id="qcetmUhBh17T8OcVZiiX-12" value="" style="edgeStyle=orthogonalEdgeStyle;rounded=0;orthogonalLoop=1;jettySize=auto;html=1;" edge="1" parent="qcetmUhBh17T8OcVZiiX-3" source="qcetmUhBh17T8OcVZiiX-9" target="qcetmUhBh17T8OcVZiiX-11">
          <mxGeometry relative="1" as="geometry" />
        </mxCell>
        <mxCell id="qcetmUhBh17T8OcVZiiX-9" value="Aanmeld formulier gegevens" style="shape=parallelogram;html=1;strokeWidth=2;perimeter=parallelogramPerimeter;whiteSpace=wrap;rounded=1;arcSize=12;size=0.23;" vertex="1" parent="qcetmUhBh17T8OcVZiiX-3">
          <mxGeometry x="45" y="109" width="100" height="60" as="geometry" />
        </mxCell>
        <mxCell id="qcetmUhBh17T8OcVZiiX-14" value="" style="edgeStyle=orthogonalEdgeStyle;rounded=0;orthogonalLoop=1;jettySize=auto;html=1;" edge="1" parent="qcetmUhBh17T8OcVZiiX-3" source="qcetmUhBh17T8OcVZiiX-11" target="qcetmUhBh17T8OcVZiiX-13">
          <mxGeometry relative="1" as="geometry" />
        </mxCell>
        <mxCell id="qcetmUhBh17T8OcVZiiX-16" value="" style="edgeStyle=orthogonalEdgeStyle;rounded=0;orthogonalLoop=1;jettySize=auto;html=1;" edge="1" parent="qcetmUhBh17T8OcVZiiX-3" source="qcetmUhBh17T8OcVZiiX-11" target="qcetmUhBh17T8OcVZiiX-15">
          <mxGeometry relative="1" as="geometry" />
        </mxCell>
        <mxCell id="qcetmUhBh17T8OcVZiiX-11" value="Bijwerken &lt;i&gt;Stand van Zaken&lt;/i&gt; Excel document" style="rounded=0;whiteSpace=wrap;html=1;" vertex="1" parent="qcetmUhBh17T8OcVZiiX-3">
          <mxGeometry x="190" y="109" width="120" height="60" as="geometry" />
        </mxCell>
        <mxCell id="qcetmUhBh17T8OcVZiiX-13" value="Stand van Zaken Excel" style="shape=document;whiteSpace=wrap;html=1;boundedLbl=1;" vertex="1" parent="qcetmUhBh17T8OcVZiiX-3">
          <mxGeometry x="190" y="229" width="120" height="80" as="geometry" />
        </mxCell>
        <mxCell id="qcetmUhBh17T8OcVZiiX-18" value="" style="edgeStyle=orthogonalEdgeStyle;rounded=0;orthogonalLoop=1;jettySize=auto;html=1;" edge="1" parent="qcetmUhBh17T8OcVZiiX-3" source="qcetmUhBh17T8OcVZiiX-15" target="qcetmUhBh17T8OcVZiiX-17">
          <mxGeometry relative="1" as="geometry" />
        </mxCell>
        <mxCell id="qcetmUhBh17T8OcVZiiX-15" value="&lt;div&gt;Ontvangst&lt;/div&gt;&lt;div&gt;bevestiging&lt;br&gt;&lt;/div&gt;" style="shape=parallelogram;html=1;strokeWidth=2;perimeter=parallelogramPerimeter;whiteSpace=wrap;rounded=1;arcSize=12;size=0.23;" vertex="1" parent="qcetmUhBh17T8OcVZiiX-3">
          <mxGeometry x="360" y="109" width="100" height="60" as="geometry" />
        </mxCell>
        <mxCell id="qcetmUhBh17T8OcVZiiX-28" value="" style="edgeStyle=orthogonalEdgeStyle;rounded=0;orthogonalLoop=1;jettySize=auto;html=1;" edge="1" parent="qcetmUhBh17T8OcVZiiX-3" source="qcetmUhBh17T8OcVZiiX-17" target="qcetmUhBh17T8OcVZiiX-27">
          <mxGeometry relative="1" as="geometry" />
        </mxCell>
        <mxCell id="qcetmUhBh17T8OcVZiiX-37" value="Nee" style="edgeLabel;html=1;align=center;verticalAlign=middle;resizable=0;points=[];" vertex="1" connectable="0" parent="qcetmUhBh17T8OcVZiiX-28">
          <mxGeometry x="-0.2" y="-4" relative="1" as="geometry">
            <mxPoint as="offset" />
          </mxGeometry>
        </mxCell>
        <mxCell id="qcetmUhBh17T8OcVZiiX-40" style="edgeStyle=orthogonalEdgeStyle;rounded=0;orthogonalLoop=1;jettySize=auto;html=1;exitX=0.5;exitY=0;exitDx=0;exitDy=0;entryX=0.5;entryY=0;entryDx=0;entryDy=0;" edge="1" parent="qcetmUhBh17T8OcVZiiX-3" source="qcetmUhBh17T8OcVZiiX-17" target="qcetmUhBh17T8OcVZiiX-39">
          <mxGeometry relative="1" as="geometry">
            <Array as="points">
              <mxPoint x="565" y="30" />
              <mxPoint x="1070" y="30" />
            </Array>
          </mxGeometry>
        </mxCell>
        <mxCell id="qcetmUhBh17T8OcVZiiX-41" value="Ja" style="edgeLabel;html=1;align=center;verticalAlign=middle;resizable=0;points=[];" vertex="1" connectable="0" parent="qcetmUhBh17T8OcVZiiX-40">
          <mxGeometry x="0.0358" y="-1" relative="1" as="geometry">
            <mxPoint as="offset" />
          </mxGeometry>
        </mxCell>
        <mxCell id="qcetmUhBh17T8OcVZiiX-17" value="Juiste aanvraag formulier?" style="rhombus;whiteSpace=wrap;html=1;strokeWidth=2;rounded=1;arcSize=12;" vertex="1" parent="qcetmUhBh17T8OcVZiiX-3">
          <mxGeometry x="510" y="89" width="110" height="100" as="geometry" />
        </mxCell>
        <mxCell id="qcetmUhBh17T8OcVZiiX-30" value="" style="edgeStyle=orthogonalEdgeStyle;rounded=0;orthogonalLoop=1;jettySize=auto;html=1;" edge="1" parent="qcetmUhBh17T8OcVZiiX-3" source="qcetmUhBh17T8OcVZiiX-27" target="qcetmUhBh17T8OcVZiiX-29">
          <mxGeometry relative="1" as="geometry" />
        </mxCell>
        <mxCell id="qcetmUhBh17T8OcVZiiX-31" value="VTh/Impl" style="edgeLabel;html=1;align=center;verticalAlign=middle;resizable=0;points=[];" vertex="1" connectable="0" parent="qcetmUhBh17T8OcVZiiX-30">
          <mxGeometry x="-0.1273" y="1" relative="1" as="geometry">
            <mxPoint as="offset" />
          </mxGeometry>
        </mxCell>
        <mxCell id="qcetmUhBh17T8OcVZiiX-27" value="Grip of VTH?" style="rhombus;whiteSpace=wrap;html=1;strokeWidth=2;rounded=1;arcSize=12;" vertex="1" parent="qcetmUhBh17T8OcVZiiX-3">
          <mxGeometry x="680" y="98.5" width="95" height="81" as="geometry" />
        </mxCell>
        <mxCell id="qcetmUhBh17T8OcVZiiX-29" value="Formulier in Wordformat naar deelnemers werkplaatsoverleg" style="shape=document;whiteSpace=wrap;html=1;boundedLbl=1;" vertex="1" parent="qcetmUhBh17T8OcVZiiX-3">
          <mxGeometry x="830" y="99" width="120" height="80" as="geometry" />
        </mxCell>
        <mxCell id="qcetmUhBh17T8OcVZiiX-45" value="" style="edgeStyle=orthogonalEdgeStyle;rounded=0;orthogonalLoop=1;jettySize=auto;html=1;" edge="1" parent="qcetmUhBh17T8OcVZiiX-3" source="qcetmUhBh17T8OcVZiiX-39" target="qcetmUhBh17T8OcVZiiX-44">
          <mxGeometry relative="1" as="geometry" />
        </mxCell>
        <mxCell id="qcetmUhBh17T8OcVZiiX-39" value="Aanmeldformulier in Word en gemaild naar Wim, Roland en Babette" style="rounded=0;whiteSpace=wrap;html=1;" vertex="1" parent="qcetmUhBh17T8OcVZiiX-3">
          <mxGeometry x="1010" y="109" width="120" height="60" as="geometry" />
        </mxCell>
        <mxCell id="qcetmUhBh17T8OcVZiiX-47" value="" style="edgeStyle=orthogonalEdgeStyle;rounded=0;orthogonalLoop=1;jettySize=auto;html=1;" edge="1" parent="qcetmUhBh17T8OcVZiiX-3" source="qcetmUhBh17T8OcVZiiX-44" target="qcetmUhBh17T8OcVZiiX-46">
          <mxGeometry relative="1" as="geometry" />
        </mxCell>
        <mxCell id="qcetmUhBh17T8OcVZiiX-48" value="Nee" style="edgeLabel;html=1;align=center;verticalAlign=middle;resizable=0;points=[];" vertex="1" connectable="0" parent="qcetmUhBh17T8OcVZiiX-47">
          <mxGeometry x="0.3333" y="2" relative="1" as="geometry">
            <mxPoint as="offset" />
          </mxGeometry>
        </mxCell>
        <mxCell id="qcetmUhBh17T8OcVZiiX-44" value="&lt;div&gt;Door&amp;nbsp;&lt;/div&gt;&lt;div&gt;met werk-&lt;/div&gt;&lt;div&gt;plaats?&lt;/div&gt;" style="rhombus;whiteSpace=wrap;html=1;rounded=0;" vertex="1" parent="qcetmUhBh17T8OcVZiiX-3">
          <mxGeometry x="1230" y="99" width="80" height="80" as="geometry" />
        </mxCell>
        <mxCell id="qcetmUhBh17T8OcVZiiX-46" value="&lt;div&gt;Kennis-&lt;/div&gt;&lt;div&gt;geving&lt;/div&gt;&amp;nbsp;beslissing" style="shape=parallelogram;html=1;strokeWidth=2;perimeter=parallelogramPerimeter;whiteSpace=wrap;rounded=1;arcSize=12;size=0.23;" vertex="1" parent="qcetmUhBh17T8OcVZiiX-3">
          <mxGeometry x="1220" y="10" width="100" height="60" as="geometry" />
        </mxCell>
        <mxCell id="qcetmUhBh17T8OcVZiiX-4" value="Wim" style="swimlane;startSize=20;horizontal=0;html=1;" vertex="1" parent="qcetmUhBh17T8OcVZiiX-1">
          <mxGeometry y="510" width="2040" height="120" as="geometry" />
        </mxCell>
        <mxCell id="qcetmUhBh17T8OcVZiiX-19" value="Controle" style="rounded=0;whiteSpace=wrap;html=1;" vertex="1" parent="qcetmUhBh17T8OcVZiiX-4">
          <mxGeometry x="505" y="30" width="120" height="60" as="geometry" />
        </mxCell>
        <mxCell id="qcetmUhBh17T8OcVZiiX-5" value="Babette" style="swimlane;startSize=20;horizontal=0;html=1;" vertex="1" parent="qcetmUhBh17T8OcVZiiX-1">
          <mxGeometry y="630" width="2040" height="290" as="geometry" />
        </mxCell>
        <mxCell id="qcetmUhBh17T8OcVZiiX-54" value="Pre-Intake wordt gepland" style="rounded=0;whiteSpace=wrap;html=1;" vertex="1" parent="qcetmUhBh17T8OcVZiiX-5">
          <mxGeometry x="1370" y="167" width="120" height="60" as="geometry" />
        </mxCell>
        <mxCell id="qcetmUhBh17T8OcVZiiX-59" value="Bijwerken &lt;i&gt;Stand van Zaken&lt;/i&gt; Excel document" style="rounded=0;whiteSpace=wrap;html=1;" vertex="1" parent="qcetmUhBh17T8OcVZiiX-5">
          <mxGeometry x="1572" y="167" width="120" height="60" as="geometry" />
        </mxCell>
        <mxCell id="qcetmUhBh17T8OcVZiiX-71" value="" style="edgeStyle=orthogonalEdgeStyle;rounded=0;orthogonalLoop=1;jettySize=auto;html=1;exitX=1;exitY=0.5;exitDx=0;exitDy=0;" edge="1" parent="qcetmUhBh17T8OcVZiiX-5" source="qcetmUhBh17T8OcVZiiX-54" target="qcetmUhBh17T8OcVZiiX-59">
          <mxGeometry relative="1" as="geometry">
            <mxPoint x="1660" y="477" as="targetPoint" />
            <mxPoint x="1490" y="857" as="sourcePoint" />
          </mxGeometry>
        </mxCell>
        <mxCell id="qcetmUhBh17T8OcVZiiX-60" value="Stand van Zaken Excel" style="shape=document;whiteSpace=wrap;html=1;boundedLbl=1;" vertex="1" parent="qcetmUhBh17T8OcVZiiX-5">
          <mxGeometry x="1572" y="20" width="120" height="80" as="geometry" />
        </mxCell>
        <mxCell id="qcetmUhBh17T8OcVZiiX-58" value="" style="edgeStyle=orthogonalEdgeStyle;rounded=0;orthogonalLoop=1;jettySize=auto;html=1;" edge="1" source="qcetmUhBh17T8OcVZiiX-59" target="qcetmUhBh17T8OcVZiiX-60" parent="qcetmUhBh17T8OcVZiiX-5">
          <mxGeometry relative="1" as="geometry" />
        </mxCell>
        <mxCell id="qcetmUhBh17T8OcVZiiX-63" value="Organiseren + updates in werkplaatsoverleg" style="rounded=0;whiteSpace=wrap;html=1;" vertex="1" parent="qcetmUhBh17T8OcVZiiX-5">
          <mxGeometry x="1754" y="167" width="120" height="60" as="geometry" />
        </mxCell>
        <mxCell id="qcetmUhBh17T8OcVZiiX-64" value="" style="edgeStyle=orthogonalEdgeStyle;rounded=0;orthogonalLoop=1;jettySize=auto;html=1;" edge="1" parent="qcetmUhBh17T8OcVZiiX-5" source="qcetmUhBh17T8OcVZiiX-59" target="qcetmUhBh17T8OcVZiiX-63">
          <mxGeometry relative="1" as="geometry" />
        </mxCell>
        <mxCell id="qcetmUhBh17T8OcVZiiX-10" value="" style="edgeStyle=orthogonalEdgeStyle;rounded=0;orthogonalLoop=1;jettySize=auto;html=1;" edge="1" parent="qcetmUhBh17T8OcVZiiX-1" source="qcetmUhBh17T8OcVZiiX-6" target="qcetmUhBh17T8OcVZiiX-9">
          <mxGeometry relative="1" as="geometry" />
        </mxCell>
        <mxCell id="qcetmUhBh17T8OcVZiiX-20" value="" style="endArrow=classic;html=1;rounded=0;exitX=0.5;exitY=1;exitDx=0;exitDy=0;entryX=0.5;entryY=0;entryDx=0;entryDy=0;" edge="1" parent="qcetmUhBh17T8OcVZiiX-1" source="qcetmUhBh17T8OcVZiiX-17" target="qcetmUhBh17T8OcVZiiX-19">
          <mxGeometry width="50" height="50" relative="1" as="geometry">
            <mxPoint x="450" y="570" as="sourcePoint" />
            <mxPoint x="500" y="520" as="targetPoint" />
          </mxGeometry>
        </mxCell>
        <mxCell id="qcetmUhBh17T8OcVZiiX-21" value="Onbekend" style="edgeLabel;html=1;align=center;verticalAlign=middle;resizable=0;points=[];" vertex="1" connectable="0" parent="qcetmUhBh17T8OcVZiiX-20">
          <mxGeometry x="-0.0711" y="1" relative="1" as="geometry">
            <mxPoint as="offset" />
          </mxGeometry>
        </mxCell>
        <mxCell id="qcetmUhBh17T8OcVZiiX-35" style="edgeStyle=orthogonalEdgeStyle;rounded=0;orthogonalLoop=1;jettySize=auto;html=1;exitX=1;exitY=0.25;exitDx=0;exitDy=0;entryX=0;entryY=1;entryDx=0;entryDy=0;" edge="1" parent="qcetmUhBh17T8OcVZiiX-1" source="qcetmUhBh17T8OcVZiiX-19" target="qcetmUhBh17T8OcVZiiX-27">
          <mxGeometry relative="1" as="geometry" />
        </mxCell>
        <mxCell id="qcetmUhBh17T8OcVZiiX-36" value="Onbekend" style="edgeLabel;html=1;align=center;verticalAlign=middle;resizable=0;points=[];" vertex="1" connectable="0" parent="qcetmUhBh17T8OcVZiiX-35">
          <mxGeometry x="-0.7368" y="-1" relative="1" as="geometry">
            <mxPoint as="offset" />
          </mxGeometry>
        </mxCell>
        <mxCell id="qcetmUhBh17T8OcVZiiX-42" style="edgeStyle=orthogonalEdgeStyle;rounded=0;orthogonalLoop=1;jettySize=auto;html=1;exitX=1;exitY=0.75;exitDx=0;exitDy=0;entryX=0.5;entryY=1;entryDx=0;entryDy=0;" edge="1" parent="qcetmUhBh17T8OcVZiiX-1" source="qcetmUhBh17T8OcVZiiX-19" target="qcetmUhBh17T8OcVZiiX-39">
          <mxGeometry relative="1" as="geometry" />
        </mxCell>
        <mxCell id="qcetmUhBh17T8OcVZiiX-43" value="Bekend" style="edgeLabel;html=1;align=center;verticalAlign=middle;resizable=0;points=[];" vertex="1" connectable="0" parent="qcetmUhBh17T8OcVZiiX-42">
          <mxGeometry x="-0.2094" y="3" relative="1" as="geometry">
            <mxPoint as="offset" />
          </mxGeometry>
        </mxCell>
        <mxCell id="qcetmUhBh17T8OcVZiiX-50" value="" style="edgeStyle=orthogonalEdgeStyle;rounded=0;orthogonalLoop=1;jettySize=auto;html=1;" edge="1" parent="qcetmUhBh17T8OcVZiiX-1" source="qcetmUhBh17T8OcVZiiX-46" target="qcetmUhBh17T8OcVZiiX-49">
          <mxGeometry relative="1" as="geometry" />
        </mxCell>
        <mxCell id="qcetmUhBh17T8OcVZiiX-69" value="Roland" style="swimlane;startSize=30;horizontal=0;html=1;" vertex="1" parent="1">
          <mxGeometry y="950" width="2040" height="170" as="geometry" />
        </mxCell>
        <mxCell id="qcetmUhBh17T8OcVZiiX-56" value="intake wordt ingepland met aanvrager" style="rounded=0;whiteSpace=wrap;html=1;" vertex="1" parent="qcetmUhBh17T8OcVZiiX-69">
          <mxGeometry x="1550" y="30" width="120" height="60" as="geometry" />
        </mxCell>
        <mxCell id="qcetmUhBh17T8OcVZiiX-51" value="&lt;div&gt;Wie doet&lt;/div&gt;&lt;div&gt;1e intake?&lt;br&gt;&lt;/div&gt;" style="rhombus;whiteSpace=wrap;html=1;rounded=0;" vertex="1" parent="qcetmUhBh17T8OcVZiiX-69">
          <mxGeometry x="1230" y="20" width="80" height="80" as="geometry" />
        </mxCell>
        <mxCell id="qcetmUhBh17T8OcVZiiX-57" style="edgeStyle=orthogonalEdgeStyle;rounded=0;orthogonalLoop=1;jettySize=auto;html=1;exitX=1;exitY=1;exitDx=0;exitDy=0;entryX=0;entryY=0.5;entryDx=0;entryDy=0;" edge="1" parent="qcetmUhBh17T8OcVZiiX-69" source="qcetmUhBh17T8OcVZiiX-51" target="qcetmUhBh17T8OcVZiiX-56">
          <mxGeometry relative="1" as="geometry" />
        </mxCell>
        <mxCell id="qcetmUhBh17T8OcVZiiX-68" value="Roland" style="edgeLabel;html=1;align=center;verticalAlign=middle;resizable=0;points=[];" vertex="1" connectable="0" parent="qcetmUhBh17T8OcVZiiX-57">
          <mxGeometry x="-0.1704" y="5" relative="1" as="geometry">
            <mxPoint as="offset" />
          </mxGeometry>
        </mxCell>
        <mxCell id="qcetmUhBh17T8OcVZiiX-65" value="Werkplaats" style="strokeWidth=2;html=1;shape=mxgraph.flowchart.terminator;whiteSpace=wrap;fillColor=#f8cecc;strokeColor=#b85450;" vertex="1" parent="qcetmUhBh17T8OcVZiiX-69">
          <mxGeometry x="1900" y="35" width="110" height="50" as="geometry" />
        </mxCell>
        <mxCell id="qcetmUhBh17T8OcVZiiX-61" style="edgeStyle=orthogonalEdgeStyle;rounded=0;orthogonalLoop=1;jettySize=auto;html=1;exitX=0.5;exitY=0;exitDx=0;exitDy=0;entryX=0.317;entryY=0.983;entryDx=0;entryDy=0;entryPerimeter=0;" edge="1" parent="1" source="qcetmUhBh17T8OcVZiiX-56" target="qcetmUhBh17T8OcVZiiX-59">
          <mxGeometry relative="1" as="geometry" />
        </mxCell>
        <mxCell id="qcetmUhBh17T8OcVZiiX-55" style="edgeStyle=orthogonalEdgeStyle;rounded=0;orthogonalLoop=1;jettySize=auto;html=1;exitX=1;exitY=0;exitDx=0;exitDy=0;entryX=0;entryY=0.5;entryDx=0;entryDy=0;" edge="1" parent="1" source="qcetmUhBh17T8OcVZiiX-51" target="qcetmUhBh17T8OcVZiiX-54">
          <mxGeometry relative="1" as="geometry" />
        </mxCell>
        <mxCell id="qcetmUhBh17T8OcVZiiX-67" value="Babette" style="edgeLabel;html=1;align=center;verticalAlign=middle;resizable=0;points=[];" vertex="1" connectable="0" parent="qcetmUhBh17T8OcVZiiX-55">
          <mxGeometry x="-0.4487" y="-1" relative="1" as="geometry">
            <mxPoint as="offset" />
          </mxGeometry>
        </mxCell>
        <mxCell id="qcetmUhBh17T8OcVZiiX-52" value="" style="edgeStyle=orthogonalEdgeStyle;rounded=0;orthogonalLoop=1;jettySize=auto;html=1;" edge="1" parent="1" source="qcetmUhBh17T8OcVZiiX-44" target="qcetmUhBh17T8OcVZiiX-51">
          <mxGeometry relative="1" as="geometry" />
        </mxCell>
        <mxCell id="qcetmUhBh17T8OcVZiiX-53" value="Ja" style="edgeLabel;html=1;align=center;verticalAlign=middle;resizable=0;points=[];" vertex="1" connectable="0" parent="qcetmUhBh17T8OcVZiiX-52">
          <mxGeometry x="-0.275" y="-2" relative="1" as="geometry">
            <mxPoint as="offset" />
          </mxGeometry>
        </mxCell>
        <mxCell id="qcetmUhBh17T8OcVZiiX-66" value="" style="edgeStyle=orthogonalEdgeStyle;rounded=0;orthogonalLoop=1;jettySize=auto;html=1;" edge="1" parent="1" source="qcetmUhBh17T8OcVZiiX-63" target="qcetmUhBh17T8OcVZiiX-65">
          <mxGeometry relative="1" as="geometry" />
        </mxCell>
        <mxCell id="qcetmUhBh17T8OcVZiiX-33" value="" style="endArrow=classic;html=1;rounded=0;exitX=1;exitY=1;exitDx=0;exitDy=0;entryX=0.5;entryY=0;entryDx=0;entryDy=0;" edge="1" parent="1" source="qcetmUhBh17T8OcVZiiX-27" target="qcetmUhBh17T8OcVZiiX-38">
          <mxGeometry width="50" height="50" relative="1" as="geometry">
            <mxPoint x="730" y="369" as="sourcePoint" />
            <mxPoint x="755" y="815" as="targetPoint" />
          </mxGeometry>
        </mxCell>
        <mxCell id="qcetmUhBh17T8OcVZiiX-34" value="Grip" style="edgeLabel;html=1;align=center;verticalAlign=middle;resizable=0;points=[];" vertex="1" connectable="0" parent="qcetmUhBh17T8OcVZiiX-33">
          <mxGeometry x="-0.0711" y="1" relative="1" as="geometry">
            <mxPoint as="offset" />
          </mxGeometry>
        </mxCell>
        <mxCell id="qcetmUhBh17T8OcVZiiX-7" value="Tarik" style="swimlane;startSize=20;horizontal=0;html=1;" vertex="1" parent="1">
          <mxGeometry y="1120" width="2040" height="120" as="geometry" />
        </mxCell>
        <mxCell id="qcetmUhBh17T8OcVZiiX-38" value="Doorzetten naar Wietske" style="rounded=0;whiteSpace=wrap;html=1;" vertex="1" parent="qcetmUhBh17T8OcVZiiX-7">
          <mxGeometry x="695" y="36" width="120" height="60" as="geometry" />
        </mxCell>
      </root>
    </mxGraphModel>
  </diagram>
</mxfile>
